<?xml version="1.0" encoding="UTF-8"?>
<!DOCTYPE svg PUBLIC "-//W3C//DTD SVG 1.1//EN" "http://www.w3.org/Graphics/SVG/1.1/DTD/svg11.dtd">
<!-- Creator: CorelDRAW -->
<svg xmlns="http://www.w3.org/2000/svg" xml:space="preserve" width="210mm" height="297mm" version="1.1" style="shape-rendering:geometricPrecision; text-rendering:geometricPrecision; image-rendering:optimizeQuality; fill-rule:evenodd; clip-rule:evenodd"
viewBox="0 0 21000 29700"
 xmlns:xlink="http://www.w3.org/1999/xlink"
 xmlns:xodm="http://www.corel.com/coreldraw/odm/2003">
 <defs>
  <style type="text/css">
   <![CDATA[
    .fil1 {fill:#52658C}
    .fil0 {fill:#BD0602}
   ]]>
  </style>
 </defs>
 <g id="Layer_x0020_1">
  <metadata id="CorelCorpID_0Corel-Layer"/>
  <path class="fil0" d="M13581.64 11464.77c-967.25,8.9 -1934.49,17.81 -2901.63,26.68l0 -4535.88 7544.13 0c-18.01,2757.9 -35.49,5515.79 -53.66,8273.69 -26.96,4082.35 -3592.9,6792.05 -7518.08,6944.41 0,-1538.76 0,-3077.53 0,-4616.28 1669.37,145.74 2586.36,-682.61 2929.24,-2254.69 0,-1279.32 0,-2558.78 0,-3837.93z"/>
  <path class="fil1" d="M6643.57 17639.55c967.14,-8.71 1934.55,-17.79 2901.63,-26.69l0 4535.74 -7544.07 0c17.79,-2757.9 35.26,-5515.62 53.44,-8273.55 27.13,-4082.66 3593.12,-6792.35 7518.3,-6944.72 0,1539.08 0,3077.85 0,4616.62 -1669.43,-146.08 -2586.36,682.44 -2929.3,2254.36 0,1279.32 0,2558.78 0,3838.24z"/>
 </g>
</svg>
